<svg t="1587884706536" class="icon" viewBox="0 0 1024 1024" version="1.1" xmlns="http://www.w3.org/2000/svg" p-id="9488" width="48" height="48"><path d="M362.666667 480H192A117.546667 117.546667 0 0 1 74.666667 362.666667V192A117.546667 117.546667 0 0 1 192 74.666667h170.666667A117.546667 117.546667 0 0 1 480 192v170.666667a117.546667 117.546667 0 0 1-117.333333 117.333333z m-170.666667-341.333333A53.333333 53.333333 0 0 0 138.666667 192v170.666667A53.333333 53.333333 0 0 0 192 416h170.666667a53.333333 53.333333 0 0 0 53.333333-53.333333V192A53.333333 53.333333 0 0 0 362.666667 138.666667zM917.333333 202.666667H576a32 32 0 0 1 0-64h341.333333a32 32 0 0 1 0 64zM917.333333 394.666667H576a32 32 0 0 1 0-64h341.333333a32 32 0 0 1 0 64zM917.333333 672H576a32 32 0 0 1 0-64h341.333333a32 32 0 0 1 0 64zM917.333333 864H576a32 32 0 0 1 0-64h341.333333a32 32 0 0 1 0 64zM362.666667 949.333333H192A117.546667 117.546667 0 0 1 74.666667 832v-170.666667A117.546667 117.546667 0 0 1 192 544h170.666667a117.546667 117.546667 0 0 1 117.333333 117.333333v170.666667a117.546667 117.546667 0 0 1-117.333333 117.333333z m-170.666667-341.333333A53.333333 53.333333 0 0 0 138.666667 661.333333v170.666667A53.333333 53.333333 0 0 0 192 885.333333h170.666667a53.333333 53.333333 0 0 0 53.333333-53.333333v-170.666667a53.333333 53.333333 0 0 0-53.333333-53.333333z" p-id="9489" fill="#1296db"></path></svg>